<?xml version="1.0" encoding="utf-8"?>
<!-- Generator: Adobe Illustrator 19.2.1, SVG Export Plug-In . SVG Version: 6.00 Build 0)  -->
<svg version="1.1" id="Layer_1" xmlns="http://www.w3.org/2000/svg" xmlns:xlink="http://www.w3.org/1999/xlink" x="0px" y="0px"
	 viewBox="0 0 612 102.4" style="enable-background:new 0 0 612 102.4;" xml:space="preserve">
<g>
	<path d="M582.2,68.7c-3.7,0-6.4-2.4-6.4-6.3v-0.2c0-4.3,3.1-7.2,8.4-7.2c2.7,0,5.3,0.6,7.1,1.5v2.7
		C591.2,64.9,587.4,68.7,582.2,68.7 M575.6,81.4c6.8,0,11.7-2.9,15.3-7.3v6h18V46.8c0-8.1-1.6-14.1-5.6-18.4
		c-4.1-4.6-10.5-7.1-19.8-7.1c-8.9,0-15.2,1.8-21,4.5l3.7,14.3c4.6-2,8.8-3.2,14.3-3.2c7,0,10.4,3.4,10.4,9.4v1
		c-3-1.2-7.7-2.2-12.5-2.2c-12.2,0-20.3,6.2-20.3,18.2v0.2C558.2,75.1,565.7,81.4,575.6,81.4 M533.3,80.1h18.2V22.2h-18.2V80.1z
		 M532.9,17h19V2h-19V17z M495.6,64.4c-5.9,0-10.7-5.5-10.7-13.2V51c0-7.7,4.8-13.1,10.7-13.1c5.9,0,10.6,5.5,10.6,13.1v0.2
		C506.1,58.9,501.4,64.4,495.6,64.4 M490,81.4c7.8,0,12.3-4.2,15.8-9v7.7h18.2V2h-18.2v27.3c-3.5-4.4-8.1-8.3-15.9-8.3
		c-12.3,0-22.8,11.4-22.8,30.3v0.2C467.1,69.9,477.7,81.4,490,81.4 M427.1,46.4c1-6.3,4.2-10.5,9-10.5c5,0,8.3,4.1,9,10.5H427.1z
		 M437.6,81.5c10.4,0,17.6-4.7,22.6-11.8l-10.1-9.3c-3.7,4.1-7.2,5.9-11.5,5.9c-5.7,0-9.8-3.2-11.2-9.5h34.7
		c0.1-1.4,0.1-2.9,0.1-4.2c0-17-8.3-31.7-26.2-31.7c-15.4,0-26.2,13.4-26.2,30.3v0.2C409.8,69.4,421.3,81.5,437.6,81.5 M319.7,80.1
		h18.2V48.6c0-6.3,3.1-9.6,7.4-9.6c4.3,0,7.1,3.3,7.1,9.6v31.5h18.2V48.6c0-6.3,3.2-9.6,7.5-9.6c4.3,0,7.1,3.3,7.1,9.6v31.5h18.2
		v-38c0-13.5-6.7-21.2-17.8-21.2c-7.6,0-12.9,3.6-17.4,9.4c-2.8-6-8.1-9.4-15-9.4c-7.3,0-12.1,4.4-15.5,9.2v-7.9h-18.2V80.1z"/>
	<path d="M299.9,81.3c5.1,0,9.4-1.3,12.7-3.3V62c-2.2,1.2-4.5,1.9-6.9,1.9c-3.4,0-5-1.7-5-5.8V38.6h12.1V22.2h-12.1V7.6h-18.2v14.7
		h-6.1v16.4h6.1v23.5C282.4,75.9,289,81.3,299.9,81.3 M236.7,81.4c7.4,0,12.2-4.4,15.5-9.2v7.9h18.2V22.2h-18.2v31.3
		c0,6.3-3.3,9.7-7.6,9.7c-4.4,0-7.4-3.4-7.4-9.7V22.2H219v37.9C219,73.3,225.6,81.4,236.7,81.4 M118.2,80.1h18.2v-18
		c0-13.4,5.4-19.5,14.9-19.5h1.5V21.3c-8.6-0.4-13.4,4.7-16.4,12.6V22.2h-18.2V80.1z M82.7,64.4c-5.9,0-10.6-5.5-10.6-13.2V51
		c0-7.6,4.7-13.1,10.6-13.1c6,0,10.7,5.5,10.7,13.1v0.2C93.4,59,88.7,64.4,82.7,64.4 M72.5,98.3V73c3.4,4.4,8,8.3,15.8,8.3
		c12.3,0,22.9-11.4,22.9-30.3v-0.2c0-18.5-10.7-30-23-30c-7.8,0-12.2,4.2-15.7,9v-7.7H54.3v76.3 M26.6,81.4
		c12.7,0,21.2-6.6,21.2-19.4v-0.2c0-11.2-8.2-15.2-18.4-18.4c-5.5-1.8-8.4-2.9-8.4-5.1v-0.2c0-1.6,1.4-2.8,4.2-2.8
		c4.1,0,10,2,15.4,5.3l6.2-12.8C40.8,23.5,32.9,21,25.3,21c-12,0-20.8,6.8-20.8,19.1v0.2c0,11.7,8.2,15.5,18.4,18.5
		c5.5,1.7,8.4,2.7,8.4,4.9v0.2c0,2-1.4,3.1-4.6,3.1c-5.4,0-11.9-2.2-17.9-6.6L2,72.8C9.2,78.6,17.8,81.4,26.6,81.4"/>
	<path d="M200.4,34.6c0,0-6.5,6.6-7.1,14.5c-0.6,7.9-5.1,22.9-20.4,18c0,0,1.1-12.3,10.2-20.8c0,0-7.9,1.3-14.1,15.8
		C169,62,161.9,31.1,200.4,34.6 M213.2,51.1v-0.2c0-16.5-12-30.2-28.7-30.2c-16.8,0-28.9,13.8-28.9,30.4v0.2
		c0,16.5,12,30.2,28.7,30.2C201.1,81.5,213.2,67.7,213.2,51.1"/>
</g>
</svg>
